<svg xmlns="http://www.w3.org/2000/svg" viewBox="0 0 330 68">
	<path fill="none" stroke="#66595c" stroke-width="3.1" stroke-linecap="round" d="M50.6 29.6c8.3 17 10 33 3.7 36.2-6.5 3.3-19-8.3-28-25.8-9-17.6-11-34.5-4.4-37.8 2.7-1.4 6.6 0 11 3.4M9.6 40.5C4.8 38 2 35 2.2 31.8c.3-7.3 16.6-12.3 36.3-11.3 19.6 1 35.3 7.7 35 15-.3 3-3.4 5.8-8.4 7.8M30.8 60.4c-5.3 3.8-10 5.2-13 3.3-6-4-2.2-20.6 8.5-37S50.6-.2 56.7 3.6c3 2 3.6 6.5 2.4 12.5"/>
	<path fill="#66595c" d="M42.4 33c.5 2.4-1 4.8-3.4 5.3s-4.7-1-5.2-3.4 1-4.8 3.4-5.3c2.3-.5 4.7 1 5.2 3.4M98.3 57.6l21-45.6c.5-1 1.2-1.7 2.4-1.7h.2c1.2 0 2 .7 2.3 1.7l21 45.4.3 1c0 1-.8 1.8-1.8 1.8-.8 0-1.5-.6-1.8-1.4l-5.8-12.6h-29L101.4 59c-.3.7-1 1.2-1.7 1.2-1 0-1.7-.7-1.7-1.5 0-.3 0-.7.3-1M134.7 43l-13-28.6-13 28.5h26M174.7 14.2H159c-1 0-1.7-.8-1.7-1.7 0-1 .8-1.7 1.7-1.7h35c1 0 1.8.8 1.8 1.7s-.8 1.7-1.7 1.7h-15.6v44.2c0 1-1 1.8-2 1.8s-1.7-.8-1.7-1.8V14.2M211 35.5c0-13.5 10-25.6 25-25.6 14.8 0 24.5 11.8 24.5 25.2v.2c0 13.4-10 25.4-24.8 25.4S211 48.8 211 35.5m45.7 0c0-12.3-8.8-22.3-21-22.3-12 0-20.8 10-20.8 22v.2c0 12 8.7 22 21 22 12 0 20.7-9.7 20.7-22M283.5 12.4c0-1 .8-1.8 1.8-1.8h.4c.7 0 1.3.4 1.8 1L306.7 40 326 11.5c.3-.6 1-1 1.7-1h.3c1 0 2 .8 2 1.8v46c0 1-1 1.8-2 1.8s-1.8-.8-1.8-1.8V17.2l-18 26.3c-.5.6-1 1-1.6 1-.6 0-1-.4-1.5-1l-18-26.3v41.3c0 1-.8 1.7-1.7 1.7-1 0-1.8-.7-1.8-1.7v-46"/>
</svg>