<?xml version="1.0" encoding="iso-8859-1"?>
<!-- Uploaded to: SVG Repo, www.svgrepo.com, Generator: SVG Repo Mixer Tools -->
<svg height="800px" width="800px" version="1.1" id="Capa_1" xmlns="http://www.w3.org/2000/svg" xmlns:xlink="http://www.w3.org/1999/xlink" 
	 viewBox="0 0 48.687 48.687" xml:space="preserve">
<g>
	<path style="fill:#030104;" d="M42.684,46.233l-9.235-9.359h-4.244v-0.919h-0.459c7.817-2.08,13.602-9.199,13.602-17.661
		C42.348,8.207,34.141,0,24.054,0S5.76,8.207,5.76,18.294c0,8.462,5.784,15.581,13.601,17.661h-0.072v0.919h-0.002h-3.15
		L6.019,46.273c-0.676,0.698-0.505,1.347-0.4,1.594c0.104,0.247,0.452,0.82,1.424,0.82h34.588c0.956,0,1.315-0.564,1.425-0.808
		C43.166,47.636,43.354,46.993,42.684,46.233z M8.006,18.294c0-8.847,7.197-16.044,16.044-16.044s16.044,7.197,16.044,16.044
		S32.897,34.338,24.05,34.338C15.203,34.338,8.006,27.141,8.006,18.294z M8.508,46.686l8.411-7.812h15.69l7.71,7.813L8.508,46.686z
		 M33.016,18.294c0-4.943-4.021-8.965-8.965-8.965c-4.943,0-8.965,4.021-8.965,8.965c0,4.943,4.021,8.965,8.965,8.965
		S33.016,23.237,33.016,18.294z M16.587,18.294c0-4.116,3.349-7.465,7.465-7.465s7.465,3.349,7.465,7.465s-3.349,7.465-7.465,7.465
		S16.587,22.41,16.587,18.294z M24.718,13.403c-2.973,0-5.391,2.418-5.391,5.391c0,0.276-0.224,0.5-0.5,0.5s-0.5-0.224-0.5-0.5
		c0-3.524,2.868-6.391,6.391-6.391c0.276,0,0.5,0.224,0.5,0.5C25.218,13.18,24.994,13.403,24.718,13.403z"/>
</g>
</svg>